<svg width="273" height="60" viewBox="0 0 273 60" fill="none" xmlns="http://www.w3.org/2000/svg">
<path d="M15.8033 59.48C13.0193 59.48 10.6353 59 8.65131 58.04C6.69931 57.048 5.19531 55.592 4.13931 53.672C3.11531 51.72 2.60331 49.32 2.60331 46.472V37.736C2.60331 35.016 3.17931 32.712 4.33131 30.824C5.48331 28.904 7.14731 27.448 9.32331 26.456C11.5313 25.432 14.1873 24.92 17.2913 24.92C19.9153 24.92 22.1873 25.288 24.1073 26.024C26.0593 26.76 27.6113 27.864 28.7633 29.336C29.9153 30.776 30.6513 32.536 30.9713 34.616L23.8193 35.384C23.4993 33.656 22.7953 32.36 21.7073 31.496C20.6513 30.632 19.1473 30.2 17.1953 30.2C14.7633 30.2 12.9713 30.856 11.8193 32.168C10.6993 33.48 10.1393 35.4 10.1393 37.928V46.52C10.1393 49.112 10.6833 51.08 11.7713 52.424C12.8913 53.768 14.6673 54.44 17.0993 54.44C19.4353 54.44 21.1793 53.8 22.3313 52.52C23.4833 51.208 24.0593 49.384 24.0593 47.048L28.6673 48.008C28.6673 50.376 28.1713 52.424 27.1793 54.152C26.1873 55.848 24.7313 57.16 22.8113 58.088C20.9233 59.016 18.5873 59.48 15.8033 59.48ZM24.0593 49.4V42.392L26.4593 45.32H17.1473V40.712H31.3553V58.952H27.4193L24.0593 49.4Z" fill="#292929"/>
<path d="M44.9742 46.904C44.9742 49.304 45.4062 51.048 46.2702 52.136C47.1662 53.224 48.5582 53.768 50.4462 53.768C52.7502 53.768 54.5102 52.984 55.7262 51.416C56.9422 49.848 57.5502 47.576 57.5502 44.6L60.1902 40.76V44.024C60.1902 48.984 59.1182 52.808 56.9742 55.496C54.8622 58.152 51.8062 59.48 47.8062 59.48C44.2222 59.48 41.5982 58.568 39.9342 56.744C38.2702 54.888 37.4382 51.992 37.4382 48.056V33.08H44.9742V46.904ZM65.0862 59H59.0862L57.5502 51.128V33.08H65.0862V59Z" fill="#292929"/>
<path d="M79.5301 33.08V59H71.9461V33.08H79.5301ZM79.8181 22.808V29.864H71.6581V22.808H79.8181Z" fill="#292929"/>
<path d="M94.1082 23.48V59H86.5242V23.48H94.1082Z" fill="#292929"/>
<path d="M121.027 45.224C121.027 42.792 120.579 41.032 119.683 39.944C118.787 38.856 117.363 38.312 115.411 38.312C113.203 38.312 111.491 39.096 110.275 40.664C109.091 42.232 108.499 44.504 108.499 47.48L105.811 51.32L105.859 48.056C105.859 43.064 106.947 39.24 109.123 36.584C111.299 33.928 114.403 32.6 118.435 32.6C121.923 32.6 124.483 33.528 126.115 35.384C127.779 37.24 128.611 40.136 128.611 44.072V59H121.027V45.224ZM100.915 23.48H108.499V59H100.915V23.48Z" fill="#292929"/>
<path d="M147.664 59.48C144.816 59.48 142.384 59.016 140.368 58.088C138.352 57.128 136.8 55.752 135.712 53.96C134.656 52.168 134.128 50.008 134.128 47.48V44.6C134.128 42.104 134.688 39.96 135.808 38.168C136.96 36.376 138.592 35 140.704 34.04C142.848 33.08 145.376 32.6 148.288 32.6C152.8 32.6 156.256 33.752 158.656 36.056C161.088 38.328 162.304 41.608 162.304 45.896V47.768H140.272V44.36H156.352L155.296 45.656V44.168C155.296 42.152 154.688 40.584 153.472 39.464C152.256 38.312 150.592 37.736 148.48 37.736C146.368 37.736 144.704 38.312 143.488 39.464C142.272 40.616 141.664 42.216 141.664 44.264V48.344C141.664 50.392 142.24 51.976 143.392 53.096C144.576 54.184 146.208 54.728 148.288 54.728C150.08 54.728 151.536 54.36 152.656 53.624C153.776 52.888 154.48 51.88 154.768 50.6L161.968 51.08C161.2 53.8 159.568 55.88 157.072 57.32C154.576 58.76 151.44 59.48 147.664 59.48Z" fill="#292929"/>
<path d="M167.852 33.08H173.9L175.436 43.208V59H167.852V33.08ZM173.708 45.8C173.708 41.448 174.476 38.168 176.012 35.96C177.548 33.72 179.82 32.6 182.828 32.6C183.34 32.6 183.868 32.648 184.412 32.744C184.988 32.808 185.548 32.904 186.092 33.032L185.708 39.368C184.652 39.112 183.548 38.984 182.396 38.984C180.06 38.984 178.316 39.72 177.164 41.192C176.012 42.632 175.436 44.824 175.436 47.768L173.708 45.8Z" fill="#292929"/>
<path d="M228.966 45.176C228.966 42.808 228.518 41.08 227.622 39.992C226.758 38.872 225.398 38.312 223.542 38.312C221.366 38.312 219.686 39.096 218.502 40.664C217.35 42.232 216.774 44.504 216.774 47.48L214.134 51.32V48.056C214.134 43.064 215.206 39.24 217.35 36.584C219.494 33.928 222.566 32.6 226.566 32.6C229.99 32.6 232.502 33.528 234.102 35.384C235.734 37.208 236.55 40.088 236.55 44.024V59H228.966V45.176ZM189.462 33.08H195.51L197.046 41.096V59H189.462V33.08ZM209.238 45.176C209.238 42.808 208.79 41.08 207.894 39.992C207.03 38.872 205.67 38.312 203.814 38.312C201.606 38.312 199.926 39.096 198.774 40.664C197.622 42.232 197.046 44.504 197.046 47.48L194.406 51.32V48.056C194.406 43.064 195.478 39.24 197.622 36.584C199.766 33.928 202.822 32.6 206.79 32.6C210.214 32.6 212.726 33.528 214.326 35.384C215.958 37.24 216.774 40.12 216.774 44.024V59H209.238V45.176Z" fill="#292929"/>
<path d="M255.664 59.48C252.816 59.48 250.384 59.016 248.368 58.088C246.352 57.128 244.8 55.752 243.712 53.96C242.656 52.168 242.128 50.008 242.128 47.48V44.6C242.128 42.104 242.688 39.96 243.808 38.168C244.96 36.376 246.592 35 248.704 34.04C250.848 33.08 253.376 32.6 256.288 32.6C260.8 32.6 264.256 33.752 266.656 36.056C269.088 38.328 270.304 41.608 270.304 45.896V47.768H248.272V44.36H264.352L263.296 45.656V44.168C263.296 42.152 262.688 40.584 261.472 39.464C260.256 38.312 258.592 37.736 256.48 37.736C254.368 37.736 252.704 38.312 251.488 39.464C250.272 40.616 249.664 42.216 249.664 44.264V48.344C249.664 50.392 250.24 51.976 251.392 53.096C252.576 54.184 254.208 54.728 256.288 54.728C258.08 54.728 259.536 54.36 260.656 53.624C261.776 52.888 262.48 51.88 262.768 50.6L269.968 51.08C269.2 53.8 267.568 55.88 265.072 57.32C262.576 58.76 259.44 59.48 255.664 59.48Z" fill="#292929"/>
<path d="M90.348 12.14C89.3867 12.14 88.5653 11.9813 87.884 11.664C87.212 11.3467 86.694 10.8847 86.33 10.278C85.9753 9.67133 85.798 8.93866 85.798 8.08V6.12C85.798 5.252 85.9753 4.51933 86.33 3.922C86.694 3.31533 87.212 2.85333 87.884 2.536C88.5653 2.21866 89.3867 2.06 90.348 2.06C91.3187 2.06 92.14 2.21866 92.812 2.536C93.4933 2.85333 94.0113 3.31533 94.366 3.922C94.7207 4.51933 94.898 5.252 94.898 6.12V8.08C94.898 8.93866 94.7207 9.67133 94.366 10.278C94.0113 10.8847 93.4933 11.3467 92.812 11.664C92.14 11.9813 91.3187 12.14 90.348 12.14ZM90.348 10.572C91.132 10.572 91.7153 10.3573 92.098 9.928C92.49 9.48933 92.686 8.82666 92.686 7.94V6.26C92.686 5.37333 92.49 4.71533 92.098 4.286C91.7153 3.84733 91.132 3.628 90.348 3.628C89.564 3.628 88.976 3.84733 88.584 4.286C88.2013 4.71533 88.01 5.37333 88.01 6.26V7.94C88.01 8.82666 88.2013 9.48933 88.584 9.928C88.976 10.3573 89.564 10.572 90.348 10.572Z" fill="#292929"/>
<path d="M98.9518 1.64V12H96.7538V1.64H98.9518Z" fill="#292929"/>
<path d="M105.782 9.284V7.45C105.782 6.90866 105.618 6.512 105.292 6.26C104.965 6.008 104.442 5.882 103.724 5.882C103.285 5.882 102.842 5.94266 102.394 6.064C101.946 6.176 101.521 6.33933 101.12 6.554L100.826 5.056C101.124 4.90666 101.47 4.776 101.862 4.664C102.254 4.552 102.66 4.46333 103.08 4.398C103.509 4.33266 103.915 4.3 104.298 4.3C105.558 4.3 106.5 4.56133 107.126 5.084C107.751 5.60666 108.064 6.39533 108.064 7.45V12H106.314L105.782 9.284ZM103.416 12.14C102.529 12.14 101.834 11.9487 101.33 11.566C100.835 11.174 100.588 10.6373 100.588 9.956V9.676C100.588 8.976 100.84 8.43466 101.344 8.052C101.848 7.66933 102.557 7.478 103.472 7.478C104.442 7.478 105.203 7.66466 105.754 8.038C106.304 8.41133 106.58 8.94333 106.58 9.634V9.928C106.58 10.6187 106.3 11.16 105.74 11.552C105.189 11.944 104.414 12.14 103.416 12.14ZM104.046 10.992C104.568 10.992 104.979 10.8893 105.278 10.684C105.576 10.4693 105.726 10.1847 105.726 9.83V9.676C105.726 9.34 105.581 9.07866 105.292 8.892C105.012 8.696 104.615 8.598 104.102 8.598C103.626 8.598 103.257 8.68666 102.996 8.864C102.744 9.04133 102.618 9.326 102.618 9.718V9.858C102.618 10.222 102.744 10.502 102.996 10.698C103.248 10.894 103.598 10.992 104.046 10.992ZM106.37 2.032L103.038 3.88L102.478 2.998L105.446 0.589996L106.37 2.032Z" fill="#292929"/>
<path d="M111.406 9.942V11.804L110.706 13.932L109.572 13.75L109.88 12H109.376V9.942H111.406Z" fill="#292929"/>
<path d="M120.136 12.14C119.315 12.14 118.61 12.0047 118.022 11.734C117.434 11.4633 116.986 11.0713 116.678 10.558C116.37 10.0353 116.216 9.41 116.216 8.682V7.758C116.216 7.03933 116.38 6.42333 116.706 5.91C117.033 5.38733 117.504 4.99066 118.12 4.72C118.736 4.44 119.469 4.3 120.318 4.3C121.616 4.3 122.614 4.63133 123.314 5.294C124.014 5.95666 124.364 6.904 124.364 8.136V8.766H118.022V7.674H122.628L122.32 8.094V7.646C122.32 7.086 122.143 6.64733 121.788 6.33C121.443 6.00333 120.972 5.84 120.374 5.84C119.768 5.84 119.292 6.00333 118.946 6.33C118.601 6.65666 118.428 7.10933 118.428 7.688V8.934C118.428 9.50333 118.596 9.94666 118.932 10.264C119.268 10.572 119.73 10.726 120.318 10.726C120.832 10.726 121.247 10.6233 121.564 10.418C121.891 10.2127 122.096 9.928 122.18 9.564L124.266 9.704C124.052 10.488 123.585 11.09 122.866 11.51C122.148 11.93 121.238 12.14 120.136 12.14Z" fill="#292929"/>
<path d="M128.111 8.528C128.111 9.2 128.233 9.69 128.475 9.998C128.727 10.306 129.124 10.46 129.665 10.46C130.328 10.46 130.832 10.2313 131.177 9.774C131.532 9.31666 131.709 8.654 131.709 7.786L132.493 6.652V7.618C132.493 9.074 132.185 10.194 131.569 10.978C130.963 11.7527 130.081 12.14 128.923 12.14C127.887 12.14 127.127 11.874 126.641 11.342C126.156 10.81 125.913 9.97466 125.913 8.836V4.44H128.111V8.528ZM133.921 12H132.185L131.709 9.732V4.44H133.921V12Z" fill="#292929"/>
<path d="M142.784 12.14C141.58 12.14 140.665 11.9487 140.04 11.566C139.424 11.1833 139.046 10.5767 138.906 9.746L141.188 9.648C141.235 10.068 141.384 10.376 141.636 10.572C141.897 10.768 142.266 10.866 142.742 10.866C143.19 10.866 143.535 10.7913 143.778 10.642C144.03 10.4833 144.156 10.264 144.156 9.984C144.156 9.74133 144.063 9.55466 143.876 9.424C143.689 9.29333 143.447 9.19533 143.148 9.13C142.849 9.05533 142.518 8.99 142.154 8.934C141.79 8.878 141.426 8.808 141.062 8.724C140.698 8.63066 140.362 8.50466 140.054 8.346C139.755 8.178 139.513 7.954 139.326 7.674C139.149 7.394 139.06 7.02066 139.06 6.554C139.06 5.81666 139.373 5.25666 139.998 4.874C140.633 4.482 141.566 4.286 142.798 4.286C143.563 4.286 144.212 4.37 144.744 4.538C145.276 4.706 145.696 4.958 146.004 5.294C146.312 5.63 146.508 6.05 146.592 6.554L144.296 6.652C144.268 6.29733 144.133 6.02666 143.89 5.84C143.647 5.65333 143.302 5.56 142.854 5.56C142.415 5.56 142.075 5.63933 141.832 5.798C141.589 5.95666 141.468 6.18066 141.468 6.47C141.468 6.722 141.557 6.91333 141.734 7.044C141.921 7.17466 142.163 7.27733 142.462 7.352C142.77 7.41733 143.106 7.48266 143.47 7.548C143.834 7.604 144.193 7.674 144.548 7.758C144.912 7.842 145.243 7.968 145.542 8.136C145.85 8.29466 146.097 8.51866 146.284 8.808C146.471 9.088 146.564 9.45666 146.564 9.914C146.564 10.642 146.242 11.1973 145.598 11.58C144.963 11.9533 144.025 12.14 142.784 12.14Z" fill="#292929"/>
<path d="M152.067 12.14C151.19 12.14 150.438 12.0047 149.813 11.734C149.188 11.454 148.702 11.0573 148.357 10.544C148.021 10.0213 147.853 9.40066 147.853 8.682V7.758C147.853 7.03933 148.021 6.42333 148.357 5.91C148.702 5.39666 149.188 5 149.813 4.72C150.448 4.44 151.199 4.3 152.067 4.3C152.935 4.3 153.682 4.44 154.307 4.72C154.942 4.99066 155.427 5.38733 155.763 5.91C156.108 6.42333 156.281 7.03933 156.281 7.758V8.682C156.281 9.40066 156.108 10.0213 155.763 10.544C155.427 11.0573 154.942 11.454 154.307 11.734C153.682 12.0047 152.935 12.14 152.067 12.14ZM152.067 10.488C152.674 10.488 153.159 10.3247 153.523 9.998C153.887 9.662 154.069 9.20933 154.069 8.64V7.8C154.069 7.23066 153.887 6.78266 153.523 6.456C153.159 6.12 152.674 5.952 152.067 5.952C151.46 5.952 150.975 6.12 150.611 6.456C150.247 6.78266 150.065 7.23066 150.065 7.8V8.64C150.065 9.2 150.247 9.648 150.611 9.984C150.975 10.32 151.46 10.488 152.067 10.488Z" fill="#292929"/>
<path d="M160.076 8.528C160.076 9.2 160.197 9.69 160.44 9.998C160.692 10.306 161.089 10.46 161.63 10.46C162.293 10.46 162.797 10.2313 163.142 9.774C163.497 9.31666 163.674 8.654 163.674 7.786L164.458 6.652V7.618C164.458 9.074 164.15 10.194 163.534 10.978C162.927 11.7527 162.045 12.14 160.888 12.14C159.852 12.14 159.091 11.874 158.606 11.342C158.121 10.81 157.878 9.97466 157.878 8.836V4.44H160.076V8.528ZM165.886 12H164.15L163.674 9.732V4.44H165.886V12Z" fill="#292929"/>
<path d="M175.323 12.14C174.446 12.14 173.694 12.0047 173.069 11.734C172.444 11.454 171.958 11.0573 171.613 10.544C171.277 10.0213 171.109 9.40066 171.109 8.682V7.758C171.109 7.03933 171.277 6.42333 171.613 5.91C171.958 5.39666 172.444 5 173.069 4.72C173.704 4.44 174.455 4.3 175.323 4.3C176.191 4.3 176.938 4.44 177.563 4.72C178.198 4.99066 178.683 5.38733 179.019 5.91C179.364 6.42333 179.537 7.03933 179.537 7.758V8.682C179.537 9.40066 179.364 10.0213 179.019 10.544C178.683 11.0573 178.198 11.454 177.563 11.734C176.938 12.0047 176.191 12.14 175.323 12.14ZM175.323 10.488C175.93 10.488 176.415 10.3247 176.779 9.998C177.143 9.662 177.325 9.20933 177.325 8.64V7.8C177.325 7.23066 177.143 6.78266 176.779 6.456C176.415 6.12 175.93 5.952 175.323 5.952C174.716 5.952 174.231 6.12 173.867 6.456C173.503 6.78266 173.321 7.23066 173.321 7.8V8.64C173.321 9.2 173.503 9.648 173.867 9.984C174.231 10.32 174.716 10.488 175.323 10.488Z" fill="#292929"/>
<path d="M273 8.25H213M60 8.25H0M15.8033 59.48C13.0193 59.48 10.6353 59 8.65131 58.04C6.69931 57.048 5.19531 55.592 4.13931 53.672C3.11531 51.72 2.60331 49.32 2.60331 46.472V37.736C2.60331 35.016 3.17931 32.712 4.33131 30.824C5.48331 28.904 7.14731 27.448 9.32331 26.456C11.5313 25.432 14.1873 24.92 17.2913 24.92C19.9153 24.92 22.1873 25.288 24.1073 26.024C26.0593 26.76 27.6113 27.864 28.7633 29.336C29.9153 30.776 30.6513 32.536 30.9713 34.616L23.8193 35.384C23.4993 33.656 22.7953 32.36 21.7073 31.496C20.6513 30.632 19.1473 30.2 17.1953 30.2C14.7633 30.2 12.9713 30.856 11.8193 32.168C10.6993 33.48 10.1393 35.4 10.1393 37.928V46.52C10.1393 49.112 10.6833 51.08 11.7713 52.424C12.8913 53.768 14.6673 54.44 17.0993 54.44C19.4353 54.44 21.1793 53.8 22.3313 52.52C23.4833 51.208 24.0593 49.384 24.0593 47.048L28.6673 48.008C28.6673 50.376 28.1713 52.424 27.1793 54.152C26.1873 55.848 24.7313 57.16 22.8113 58.088C20.9233 59.016 18.5873 59.48 15.8033 59.48ZM24.0593 49.4V42.392L26.4593 45.32H17.1473V40.712H31.3553V58.952H27.4193L24.0593 49.4ZM44.9742 46.904C44.9742 49.304 45.4062 51.048 46.2702 52.136C47.1662 53.224 48.5582 53.768 50.4462 53.768C52.7502 53.768 54.5102 52.984 55.7262 51.416C56.9422 49.848 57.5502 47.576 57.5502 44.6L60.1902 40.76V44.024C60.1902 48.984 59.1182 52.808 56.9742 55.496C54.8622 58.152 51.8062 59.48 47.8062 59.48C44.2222 59.48 41.5982 58.568 39.9342 56.744C38.2702 54.888 37.4382 51.992 37.4382 48.056V33.08H44.9742V46.904ZM65.0862 59H59.0862L57.5502 51.128V33.08H65.0862V59ZM79.5301 33.08V59H71.9461V33.08H79.5301ZM79.8181 22.808V29.864H71.6581V22.808H79.8181ZM94.1082 23.48V59H86.5242V23.48H94.1082ZM121.027 45.224C121.027 42.792 120.579 41.032 119.683 39.944C118.787 38.856 117.363 38.312 115.411 38.312C113.203 38.312 111.491 39.096 110.275 40.664C109.091 42.232 108.499 44.504 108.499 47.48L105.811 51.32L105.859 48.056C105.859 43.064 106.947 39.24 109.123 36.584C111.299 33.928 114.403 32.6 118.435 32.6C121.923 32.6 124.483 33.528 126.115 35.384C127.779 37.24 128.611 40.136 128.611 44.072V59H121.027V45.224ZM100.915 23.48H108.499V59H100.915V23.48ZM147.664 59.48C144.816 59.48 142.384 59.016 140.368 58.088C138.352 57.128 136.8 55.752 135.712 53.96C134.656 52.168 134.128 50.008 134.128 47.48V44.6C134.128 42.104 134.688 39.96 135.808 38.168C136.96 36.376 138.592 35 140.704 34.04C142.848 33.08 145.376 32.6 148.288 32.6C152.8 32.6 156.256 33.752 158.656 36.056C161.088 38.328 162.304 41.608 162.304 45.896V47.768H140.272V44.36H156.352L155.296 45.656V44.168C155.296 42.152 154.688 40.584 153.472 39.464C152.256 38.312 150.592 37.736 148.48 37.736C146.368 37.736 144.704 38.312 143.488 39.464C142.272 40.616 141.664 42.216 141.664 44.264V48.344C141.664 50.392 142.24 51.976 143.392 53.096C144.576 54.184 146.208 54.728 148.288 54.728C150.08 54.728 151.536 54.36 152.656 53.624C153.776 52.888 154.48 51.88 154.768 50.6L161.968 51.08C161.2 53.8 159.568 55.88 157.072 57.32C154.576 58.76 151.44 59.48 147.664 59.48ZM167.852 33.08H173.9L175.436 43.208V59H167.852V33.08ZM173.708 45.8C173.708 41.448 174.476 38.168 176.012 35.96C177.548 33.72 179.82 32.6 182.828 32.6C183.34 32.6 183.868 32.648 184.412 32.744C184.988 32.808 185.548 32.904 186.092 33.032L185.708 39.368C184.652 39.112 183.548 38.984 182.396 38.984C180.06 38.984 178.316 39.72 177.164 41.192C176.012 42.632 175.436 44.824 175.436 47.768L173.708 45.8ZM228.966 45.176C228.966 42.808 228.518 41.08 227.622 39.992C226.758 38.872 225.398 38.312 223.542 38.312C221.366 38.312 219.686 39.096 218.502 40.664C217.35 42.232 216.774 44.504 216.774 47.48L214.134 51.32V48.056C214.134 43.064 215.206 39.24 217.35 36.584C219.494 33.928 222.566 32.6 226.566 32.6C229.99 32.6 232.502 33.528 234.102 35.384C235.734 37.208 236.55 40.088 236.55 44.024V59H228.966V45.176ZM189.462 33.08H195.51L197.046 41.096V59H189.462V33.08ZM209.238 45.176C209.238 42.808 208.79 41.08 207.894 39.992C207.03 38.872 205.67 38.312 203.814 38.312C201.606 38.312 199.926 39.096 198.774 40.664C197.622 42.232 197.046 44.504 197.046 47.48L194.406 51.32V48.056C194.406 43.064 195.478 39.24 197.622 36.584C199.766 33.928 202.822 32.6 206.79 32.6C210.214 32.6 212.726 33.528 214.326 35.384C215.958 37.24 216.774 40.12 216.774 44.024V59H209.238V45.176ZM255.664 59.48C252.816 59.48 250.384 59.016 248.368 58.088C246.352 57.128 244.8 55.752 243.712 53.96C242.656 52.168 242.128 50.008 242.128 47.48V44.6C242.128 42.104 242.688 39.96 243.808 38.168C244.96 36.376 246.592 35 248.704 34.04C250.848 33.08 253.376 32.6 256.288 32.6C260.8 32.6 264.256 33.752 266.656 36.056C269.088 38.328 270.304 41.608 270.304 45.896V47.768H248.272V44.36H264.352L263.296 45.656V44.168C263.296 42.152 262.688 40.584 261.472 39.464C260.256 38.312 258.592 37.736 256.48 37.736C254.368 37.736 252.704 38.312 251.488 39.464C250.272 40.616 249.664 42.216 249.664 44.264V48.344C249.664 50.392 250.24 51.976 251.392 53.096C252.576 54.184 254.208 54.728 256.288 54.728C258.08 54.728 259.536 54.36 260.656 53.624C261.776 52.888 262.48 51.88 262.768 50.6L269.968 51.08C269.2 53.8 267.568 55.88 265.072 57.32C262.576 58.76 259.44 59.48 255.664 59.48ZM90.348 12.14C89.3867 12.14 88.5653 11.9813 87.884 11.664C87.212 11.3467 86.694 10.8847 86.33 10.278C85.9753 9.67133 85.798 8.93866 85.798 8.08V6.12C85.798 5.252 85.9753 4.51933 86.33 3.922C86.694 3.31533 87.212 2.85333 87.884 2.536C88.5653 2.21866 89.3867 2.06 90.348 2.06C91.3187 2.06 92.14 2.21866 92.812 2.536C93.4933 2.85333 94.0113 3.31533 94.366 3.922C94.7207 4.51933 94.898 5.252 94.898 6.12V8.08C94.898 8.93866 94.7207 9.67133 94.366 10.278C94.0113 10.8847 93.4933 11.3467 92.812 11.664C92.14 11.9813 91.3187 12.14 90.348 12.14ZM90.348 10.572C91.132 10.572 91.7153 10.3573 92.098 9.928C92.49 9.48933 92.686 8.82666 92.686 7.94V6.26C92.686 5.37333 92.49 4.71533 92.098 4.286C91.7153 3.84733 91.132 3.628 90.348 3.628C89.564 3.628 88.976 3.84733 88.584 4.286C88.2013 4.71533 88.01 5.37333 88.01 6.26V7.94C88.01 8.82666 88.2013 9.48933 88.584 9.928C88.976 10.3573 89.564 10.572 90.348 10.572ZM98.9518 1.64V12H96.7538V1.64H98.9518ZM105.782 9.284V7.45C105.782 6.90866 105.618 6.512 105.292 6.26C104.965 6.008 104.442 5.882 103.724 5.882C103.285 5.882 102.842 5.94266 102.394 6.064C101.946 6.176 101.521 6.33933 101.12 6.554L100.826 5.056C101.124 4.90666 101.47 4.776 101.862 4.664C102.254 4.552 102.66 4.46333 103.08 4.398C103.509 4.33266 103.915 4.3 104.298 4.3C105.558 4.3 106.5 4.56133 107.126 5.084C107.751 5.60666 108.064 6.39533 108.064 7.45V12H106.314L105.782 9.284ZM103.416 12.14C102.529 12.14 101.834 11.9487 101.33 11.566C100.835 11.174 100.588 10.6373 100.588 9.956V9.676C100.588 8.976 100.84 8.43466 101.344 8.052C101.848 7.66933 102.557 7.478 103.472 7.478C104.442 7.478 105.203 7.66466 105.754 8.038C106.304 8.41133 106.58 8.94333 106.58 9.634V9.928C106.58 10.6187 106.3 11.16 105.74 11.552C105.189 11.944 104.414 12.14 103.416 12.14ZM104.046 10.992C104.568 10.992 104.979 10.8893 105.278 10.684C105.576 10.4693 105.726 10.1847 105.726 9.83V9.676C105.726 9.34 105.581 9.07866 105.292 8.892C105.012 8.696 104.615 8.598 104.102 8.598C103.626 8.598 103.257 8.68666 102.996 8.864C102.744 9.04133 102.618 9.326 102.618 9.718V9.858C102.618 10.222 102.744 10.502 102.996 10.698C103.248 10.894 103.598 10.992 104.046 10.992ZM106.37 2.032L103.038 3.88L102.478 2.998L105.446 0.589996L106.37 2.032ZM111.406 9.942V11.804L110.706 13.932L109.572 13.75L109.88 12H109.376V9.942H111.406ZM120.136 12.14C119.315 12.14 118.61 12.0047 118.022 11.734C117.434 11.4633 116.986 11.0713 116.678 10.558C116.37 10.0353 116.216 9.41 116.216 8.682V7.758C116.216 7.03933 116.38 6.42333 116.706 5.91C117.033 5.38733 117.504 4.99066 118.12 4.72C118.736 4.44 119.469 4.3 120.318 4.3C121.616 4.3 122.614 4.63133 123.314 5.294C124.014 5.95666 124.364 6.904 124.364 8.136V8.766H118.022V7.674H122.628L122.32 8.094V7.646C122.32 7.086 122.143 6.64733 121.788 6.33C121.443 6.00333 120.972 5.84 120.374 5.84C119.768 5.84 119.292 6.00333 118.946 6.33C118.601 6.65666 118.428 7.10933 118.428 7.688V8.934C118.428 9.50333 118.596 9.94666 118.932 10.264C119.268 10.572 119.73 10.726 120.318 10.726C120.832 10.726 121.247 10.6233 121.564 10.418C121.891 10.2127 122.096 9.928 122.18 9.564L124.266 9.704C124.052 10.488 123.585 11.09 122.866 11.51C122.148 11.93 121.238 12.14 120.136 12.14ZM128.111 8.528C128.111 9.2 128.233 9.69 128.475 9.998C128.727 10.306 129.124 10.46 129.665 10.46C130.328 10.46 130.832 10.2313 131.177 9.774C131.532 9.31666 131.709 8.654 131.709 7.786L132.493 6.652V7.618C132.493 9.074 132.185 10.194 131.569 10.978C130.963 11.7527 130.081 12.14 128.923 12.14C127.887 12.14 127.127 11.874 126.641 11.342C126.156 10.81 125.913 9.97466 125.913 8.836V4.44H128.111V8.528ZM133.921 12H132.185L131.709 9.732V4.44H133.921V12ZM142.784 12.14C141.58 12.14 140.665 11.9487 140.04 11.566C139.424 11.1833 139.046 10.5767 138.906 9.746L141.188 9.648C141.235 10.068 141.384 10.376 141.636 10.572C141.897 10.768 142.266 10.866 142.742 10.866C143.19 10.866 143.535 10.7913 143.778 10.642C144.03 10.4833 144.156 10.264 144.156 9.984C144.156 9.74133 144.063 9.55466 143.876 9.424C143.689 9.29333 143.447 9.19533 143.148 9.13C142.849 9.05533 142.518 8.99 142.154 8.934C141.79 8.878 141.426 8.808 141.062 8.724C140.698 8.63066 140.362 8.50466 140.054 8.346C139.755 8.178 139.513 7.954 139.326 7.674C139.149 7.394 139.06 7.02066 139.06 6.554C139.06 5.81666 139.373 5.25666 139.998 4.874C140.633 4.482 141.566 4.286 142.798 4.286C143.563 4.286 144.212 4.37 144.744 4.538C145.276 4.706 145.696 4.958 146.004 5.294C146.312 5.63 146.508 6.05 146.592 6.554L144.296 6.652C144.268 6.29733 144.133 6.02666 143.89 5.84C143.647 5.65333 143.302 5.56 142.854 5.56C142.415 5.56 142.075 5.63933 141.832 5.798C141.589 5.95666 141.468 6.18066 141.468 6.47C141.468 6.722 141.557 6.91333 141.734 7.044C141.921 7.17466 142.163 7.27733 142.462 7.352C142.77 7.41733 143.106 7.48266 143.47 7.548C143.834 7.604 144.193 7.674 144.548 7.758C144.912 7.842 145.243 7.968 145.542 8.136C145.85 8.29466 146.097 8.51866 146.284 8.808C146.471 9.088 146.564 9.45666 146.564 9.914C146.564 10.642 146.242 11.1973 145.598 11.58C144.963 11.9533 144.025 12.14 142.784 12.14ZM152.067 12.14C151.19 12.14 150.438 12.0047 149.813 11.734C149.188 11.454 148.702 11.0573 148.357 10.544C148.021 10.0213 147.853 9.40066 147.853 8.682V7.758C147.853 7.03933 148.021 6.42333 148.357 5.91C148.702 5.39666 149.188 5 149.813 4.72C150.448 4.44 151.199 4.3 152.067 4.3C152.935 4.3 153.682 4.44 154.307 4.72C154.942 4.99066 155.427 5.38733 155.763 5.91C156.108 6.42333 156.281 7.03933 156.281 7.758V8.682C156.281 9.40066 156.108 10.0213 155.763 10.544C155.427 11.0573 154.942 11.454 154.307 11.734C153.682 12.0047 152.935 12.14 152.067 12.14ZM152.067 10.488C152.674 10.488 153.159 10.3247 153.523 9.998C153.887 9.662 154.069 9.20933 154.069 8.64V7.8C154.069 7.23066 153.887 6.78266 153.523 6.456C153.159 6.12 152.674 5.952 152.067 5.952C151.46 5.952 150.975 6.12 150.611 6.456C150.247 6.78266 150.065 7.23066 150.065 7.8V8.64C150.065 9.2 150.247 9.648 150.611 9.984C150.975 10.32 151.46 10.488 152.067 10.488ZM160.076 8.528C160.076 9.2 160.197 9.69 160.44 9.998C160.692 10.306 161.089 10.46 161.63 10.46C162.293 10.46 162.797 10.2313 163.142 9.774C163.497 9.31666 163.674 8.654 163.674 7.786L164.458 6.652V7.618C164.458 9.074 164.15 10.194 163.534 10.978C162.927 11.7527 162.045 12.14 160.888 12.14C159.852 12.14 159.091 11.874 158.606 11.342C158.121 10.81 157.878 9.97466 157.878 8.836V4.44H160.076V8.528ZM165.886 12H164.15L163.674 9.732V4.44H165.886V12ZM175.323 12.14C174.446 12.14 173.694 12.0047 173.069 11.734C172.444 11.454 171.958 11.0573 171.613 10.544C171.277 10.0213 171.109 9.40066 171.109 8.682V7.758C171.109 7.03933 171.277 6.42333 171.613 5.91C171.958 5.39666 172.444 5 173.069 4.72C173.704 4.44 174.455 4.3 175.323 4.3C176.191 4.3 176.938 4.44 177.563 4.72C178.198 4.99066 178.683 5.38733 179.019 5.91C179.364 6.42333 179.537 7.03933 179.537 7.758V8.682C179.537 9.40066 179.364 10.0213 179.019 10.544C178.683 11.0573 178.198 11.454 177.563 11.734C176.938 12.0047 176.191 12.14 175.323 12.14ZM175.323 10.488C175.93 10.488 176.415 10.3247 176.779 9.998C177.143 9.662 177.325 9.20933 177.325 8.64V7.8C177.325 7.23066 177.143 6.78266 176.779 6.456C176.415 6.12 175.93 5.952 175.323 5.952C174.716 5.952 174.231 6.12 173.867 6.456C173.503 6.78266 173.321 7.23066 173.321 7.8V8.64C173.321 9.2 173.503 9.648 173.867 9.984C174.231 10.32 174.716 10.488 175.323 10.488Z" stroke="#292929" stroke-width="0.5"/>
</svg>
